999
dxfrw 0.6.3
  0
SECTION
  2
HEADER
  9
$ACADVER
  1
AC1021
  9
$DWGCODEPAGE
  3
ANSI_1252
  9
$INSBASE
 10
0
 20
0
 30
0
  9
$EXTMIN
 10
-16
 20
-16
 30
0
  9
$EXTMAX
 10
167
 20
250
 30
0
  9
$LIMMIN
 10
0
 20
0
  9
$LIMMAX
 10
420
 20
297
  9
$ORTHOMODE
 70
    0
  9
$REGENMODE
 70
    1
  9
$FILLMODE
 70
    1
  9
$QTEXTMODE
 70
    0
  9
$MIRRTEXT
 70
    0
  9
$LTSCALE
 40
1
  9
$ATTMODE
 70
    0
  9
$TEXTSIZE
 40
2.5
  9
$TRACEWID
 40
15.68
  9
$TEXTSTYLE
  7
STANDARD
  9
$CLAYER
  8
0
  9
$CELTYPE
  6
BYLAYER
  9
$CECOLOR
 62
  256
  9
$CELTSCALE
 40
1
  9
$DISPSILH
 70
    0
  9
$DIMSCALE
 40
1
  9
$DIMASZ
 40
2.5
  9
$DIMEXO
 40
0.625
  9
$DIMDLI
 40
3.75
  9
$DIMRND
 40
0
  9
$DIMDLE
 40
0
  9
$DIMEXE
 40
1.25
  9
$DIMTP
 40
0
  9
$DIMTM
 40
0
  9
$DIMTXT
 40
2.5
  9
$DIMCEN
 40
2.5
  9
$DIMTSZ
 40
0
  9
$DIMTOL
 70
    0
  9
$DIMLIM
 70
    0
  9
$DIMTIH
 70
    0
  9
$DIMTOH
 70
    0
  9
$DIMSE1
 70
    0
  9
$DIMSE2
 70
    0
  9
$DIMTAD
 70
    1
  9
$DIMZIN
 70
    8
  9
$DIMBLK
  1

  9
$DIMASO
 70
    1
  9
$DIMSHO
 70
    1
  9
$DIMPOST
  1

  9
$DIMAPOST
  1

  9
$DIMALT
 70
    0
  9
$DIMALTD
 70
    3
  9
$DIMALTF
 40
0.03937
  9
$DIMLFAC
 40
1
  9
$DIMTOFL
 70
    1
  9
$DIMTVP
 40
0
  9
$DIMTIX
 70
    0
  9
$DIMSOXD
 70
    0
  9
$DIMSAH
 70
    0
  9
$DIMBLK1
  1

  9
$DIMBLK2
  1

  9
$DIMSTYLE
  2
STANDARD
  9
$DIMCLRD
 70
    0
  9
$DIMCLRE
 70
    0
  9
$DIMCLRT
 70
    0
  9
$DIMTFAC
 40
1
  9
$DIMGAP
 40
0.625
  9
$DIMJUST
 70
    0
  9
$DIMSD1
 70
    0
  9
$DIMSD2
 70
    0
  9
$DIMTOLJ
 70
    0
  9
$DIMTZIN
 70
    8
  9
$DIMALTZ
 70
    0
  9
$DIMALTTZ
 70
    0
  9
$DIMUPT
 70
    0
  9
$DIMDEC
 70
    2
  9
$DIMTDEC
 70
    2
  9
$DIMALTU
 70
    2
  9
$DIMALTTD
 70
    3
  9
$DIMTXSTY
  7
STANDARD
  9
$DIMAUNIT
 70
    0
  9
$DIMADEC
 70
    0
  9
$DIMALTRND
 40
0
  9
$DIMAZIN
 70
    0
  9
$DIMDSEP
 70
   44
  9
$DIMATFIT
 70
    3
  9
$DIMFRAC
 70
    0
  9
$DIMLDRBLK
  1
STANDARD
  9
$DIMLUNIT
 70
    2
  9
$DIMLWD
 70
   -2
  9
$DIMLWE
 70
   -2
  9
$DIMTMOVE
 70
    0
  9
$DIMFXL
 40
1
  9
$DIMFXLON
 70
    0
  9
$DIMJOGANG
 40
0.7854
  9
$DIMTFILL
 70
    0
  9
$DIMTFILLCLR
 70
    0
  9
$DIMARCSYM
 70
    0
  9
$DIMLTYPE
  6

  9
$DIMLTEX1
  6

  9
$DIMLTEX2
  6

  9
$LUNITS
 70
    2
  9
$LUPREC
 70
    4
  9
$SKETCHINC
 40
1
  9
$FILLETRAD
 40
0
  9
$AUNITS
 70
    0
  9
$AUPREC
 70
    2
  9
$MENU
  1
.
  9
$ELEVATION
 40
0
  9
$PELEVATION
 40
0
  9
$THICKNESS
 40
0
  9
$LIMCHECK
 70
    0
  9
$CHAMFERA
 40
0
  9
$CHAMFERB
 40
0
  9
$CHAMFERC
 40
0
  9
$CHAMFERD
 40
0
  9
$SKPOLY
 70
    0
  9
$USRTIMER
 70
    1
  9
$ANGBASE
 50
0
  9
$ANGDIR
 70
    0
  9
$PDMODE
 70
   34
  9
$PDSIZE
 40
0
  9
$PLINEWID
 40
0
  9
$SPLFRAME
 70
    0
  9
$SPLINETYPE
 70
    2
  9
$SPLINESEGS
 70
    8
  9
$HANDSEED
  5
20000
  9
$SURFTAB1
 70
    6
  9
$SURFTAB2
 70
    6
  9
$SURFTYPE
 70
    6
  9
$SURFU
 70
    6
  9
$SURFV
 70
    6
  9
$UCSBASE
  2

  9
$UCSNAME
  2

  9
$UCSORG
 10
0
 20
0
 30
0
  9
$UCSXDIR
 10
1
 20
0
 30
0
  9
$UCSYDIR
 10
0
 20
1
 30
0
  9
$UCSORTHOREF
  2

  9
$UCSORTHOVIEW
 70
    0
  9
$UCSORGTOP
 10
0
 20
0
 30
0
  9
$UCSORGBOTTOM
 10
0
 20
0
 30
0
  9
$UCSORGLEFT
 10
0
 20
0
 30
0
  9
$UCSORGRIGHT
 10
0
 20
0
 30
0
  9
$UCSORGFRONT
 10
0
 20
0
 30
0
  9
$UCSORGBACK
 10
0
 20
0
 30
0
  9
$PUCSBASE
  2

  9
$PUCSNAME
  2

  9
$PUCSORG
 10
0
 20
0
 30
0
  9
$PUCSXDIR
 10
1
 20
0
 30
0
  9
$PUCSYDIR
 10
0
 20
1
 30
0
  9
$PUCSORTHOREF
  2

  9
$PUCSORTHOVIEW
 70
    0
  9
$PUCSORGTOP
 10
0
 20
0
 30
0
  9
$PUCSORGBOTTOM
 10
0
 20
0
 30
0
  9
$PUCSORGLEFT
 10
0
 20
0
 30
0
  9
$PUCSORGRIGHT
 10
0
 20
0
 30
0
  9
$PUCSORGFRONT
 10
0
 20
0
 30
0
  9
$PUCSORGBACK
 10
0
 20
0
 30
0
  9
$USERI1
 70
    0
  9
$USERI2
 70
    0
  9
$USERI3
 70
    0
  9
$USERI4
 70
    0
  9
$USERI5
 70
    0
  9
$USERR1
 40
0
  9
$USERR2
 40
0
  9
$USERR3
 40
0
  9
$USERR4
 40
0
  9
$USERR5
 40
0
  9
$WORLDVIEW
 70
    1
  9
$SHADEDGE
 70
    3
  9
$SHADEDIF
 70
   70
  9
$TILEMODE
 70
    1
  9
$MAXACTVP
 70
   64
  9
$PINSBASE
 10
28.67486338797814
 20
30.22131147540983
 30
0
  9
$PLIMCHECK
 70
    0
  9
$PEXTMIN
 10
0
 20
0
 30
0
  9
$PEXTMAX
 10
0
 20
0
 30
0
  9
$GRIDMODE
 70
    1
  9
$SNAPSTYLE
 70
    0
  9
$PLIMMIN
 10
0
 20
0
  9
$PLIMMAX
 10
210
 20
297
  9
$UNITMODE
 70
    0
  9
$VISRETAIN
 70
    1
  9
$PLINEGEN
 70
    0
  9
$PSLTSCALE
 70
    1
  9
$TREEDEPTH
 70
 3020
  9
$CMLSTYLE
  2
Standard
  9
$CMLJUST
 70
    0
  9
$CMLSCALE
 40
20
  9
$PROXYGRAPHICS
 70
    1
  9
$MEASUREMENT
 70
    1
  9
$CELWEIGHT
370
   -1
  9
$ENDCAPS
280
    0
  9
$JOINSTYLE
280
    0
  9
$LWDISPLAY
290
    0
  9
$INSUNITS
 70
    4
  9
$HYPERLINKBASE
  1

  9
$STYLESHEET
  1

  9
$XEDIT
290
    1
  9
$CEPSNTYPE
380
    0
  9
$PSTYLEMODE
290
    1
  9
$EXTNAMES
290
    1
  9
$PSVPSCALE
 40
1.01093
  9
$OLESTARTUP
290
    0
  9
$SORTENTS
280
  127
  9
$INDEXCTL
280
    0
  9
$HIDETEXT
280
    1
  9
$XCLIPFRAME
290
    0
  9
$HALOGAP
280
    0
  9
$OBSCOLOR
 70
  257
  9
$OBSLTYPE
280
    0
  9
$INTERSECTIONDISPLAY
280
    0
  9
$INTERSECTIONCOLOR
 70
  257
  9
$DIMASSOC
280
    1
  9
$PROJECTNAME
  1

  9
$CAMERADISPLAY
290
    0
  9
$LENSLENGTH
 40
50
  9
$CAMERAHEIGHT
 40
0
  9
$STEPSPERSEC
 40
2
  9
$STEPSIZE
 40
50
  9
$3DDWFPREC
 40
2
  9
$PSOLWIDTH
 40
5
  9
$PSOLHEIGHT
 40
80
  9
$LOFTANG1
 40
1.570796326794897
  9
$LOFTANG2
 40
1.570796326794897
  9
$LOFTMAG1
 40
0
  9
$LOFTMAG2
 40
0
  9
$LOFTPARAM
 70
    7
  9
$LOFTNORMALS
280
    1
  9
$LATITUDE
 40
1
  9
$LONGITUDE
 40
1
  9
$NORTHDIRECTION
 40
0
  9
$TIMEZONE
 70
-8000
  9
$LIGHTGLYPHDISPLAY
280
    1
  9
$TILEMODELIGHTSYNCH
280
    1
  9
$SOLIDHIST
280
    1
  9
$SHOWHIST
280
    1
  9
$DWFFRAME
280
    2
  9
$DGNFRAME
280
    0
  9
$REALWORLDSCALE
290
    1
  9
$INTERFERECOLOR
 62
    1
  9
$CSHADOW
280
    0
  9
$SHADOWPLANELOCATION
 40
0
  0
ENDSEC
  0
SECTION
  2
CLASSES
  0
ENDSEC
  0
SECTION
  2
TABLES
  0
TABLE
  2
VPORT
  5
8
330
0
100
AcDbSymbolTable
 70
    1
  0
VPORT
  5
31
330
2
100
AcDbSymbolTableRecord
100
AcDbViewportTableRecord
  2
*ACTIVE
 70
    0
 10
0
 20
0
 11
1
 21
1
 12
158.8869463869464
 22
123.8543123543124
 13
0
 23
0
 14
10
 24
10
 15
10
 25
10
 16
0
 26
0
 36
1
 17
0
 27
0
 37
0
 40
266.6200466200467
 41
1.815116279069767
 42
50
 43
0
 44
0
 50
0
 51
0
 71
    0
 72
  100
 73
    1
 74
    3
 75
    0
 76
    1
 77
    0
 78
    0
281
    0
 65
    1
110
0
120
0
130
0
111
1
121
0
131
0
112
0
122
1
132
0
 79
    0
146
0
348
10020
 60
    7
 61
    5
292
1
282
    1
141
0
142
0
 63
  250
421
3358443
  0
ENDTAB
  0
TABLE
  2
LTYPE
  5
5
330
0
100
AcDbSymbolTable
 70
    4
  0
LTYPE
  5
14
330
5
100
AcDbSymbolTableRecord
100
AcDbLinetypeTableRecord
  2
ByBlock
 70
    0
  3

 72
   65
 73
    0
 40
0
  0
LTYPE
  5
15
330
5
100
AcDbSymbolTableRecord
100
AcDbLinetypeTableRecord
  2
ByLayer
 70
    0
  3

 72
   65
 73
    0
 40
0
  0
LTYPE
  5
16
330
5
100
AcDbSymbolTableRecord
100
AcDbLinetypeTableRecord
  2
Continuous
 70
    0
  3
Solid line
 72
   65
 73
    0
 40
0
  0
LTYPE
  5
32
330
5
100
AcDbSymbolTableRecord
100
AcDbLinetypeTableRecord
  2
DOT
 70
    0
  3
Dot . . . . . . . . . . . . . . . . . . . . . .
 72
   65
 73
    2
 40
6.35
 49
0
 74
    0
 49
-6.35
 74
    0
  0
LTYPE
  5
33
330
5
100
AcDbSymbolTableRecord
100
AcDbLinetypeTableRecord
  2
DOTTINY
 70
    0
  3
Dot (.15x) .....................................
 72
   65
 73
    2
 40
0.9525
 49
0
 74
    0
 49
-0.9525
 74
    0
  0
LTYPE
  5
34
330
5
100
AcDbSymbolTableRecord
100
AcDbLinetypeTableRecord
  2
DOT2
 70
    0
  3
Dot (.5x) .....................................
 72
   65
 73
    2
 40
3.175
 49
0
 74
    0
 49
-3.175
 74
    0
  0
LTYPE
  5
35
330
5
100
AcDbSymbolTableRecord
100
AcDbLinetypeTableRecord
  2
DOTX2
 70
    0
  3
Dot (2x) .  .  .  .  .  .  .  .  .  .  .  .  .
 72
   65
 73
    2
 40
12.7
 49
0
 74
    0
 49
-12.7
 74
    0
  0
LTYPE
  5
36
330
5
100
AcDbSymbolTableRecord
100
AcDbLinetypeTableRecord
  2
DASHED
 70
    0
  3
Dashed _ _ _ _ _ _ _ _ _ _ _ _ _ _ _ _ _
 72
   65
 73
    2
 40
19.05
 49
12.7
 74
    0
 49
-6.35
 74
    0
  0
LTYPE
  5
37
330
5
100
AcDbSymbolTableRecord
100
AcDbLinetypeTableRecord
  2
DASHEDTINY
 70
    0
  3
Dashed (.15x) _ _ _ _ _ _ _ _ _ _ _ _ _ _ _ _ _
 72
   65
 73
    2
 40
2.8575
 49
1.905
 74
    0
 49
-0.9525
 74
    0
  0
LTYPE
  5
38
330
5
100
AcDbSymbolTableRecord
100
AcDbLinetypeTableRecord
  2
DASHED2
 70
    0
  3
Dashed (.5x) _ _ _ _ _ _ _ _ _ _ _ _ _ _ _ _ _
 72
   65
 73
    2
 40
9.524999999999999
 49
6.35
 74
    0
 49
-3.175
 74
    0
  0
LTYPE
  5
39
330
5
100
AcDbSymbolTableRecord
100
AcDbLinetypeTableRecord
  2
DASHEDX2
 70
    0
  3
Dashed (2x) ____  ____  ____  ____  ____  ___
 72
   65
 73
    2
 40
38.09999999999999
 49
25.4
 74
    0
 49
-12.7
 74
    0
  0
LTYPE
  5
3A
330
5
100
AcDbSymbolTableRecord
100
AcDbLinetypeTableRecord
  2
DASHDOT
 70
    0
  3
Dash dot __ . __ . __ . __ . __ . __ . __ . __
 72
   65
 73
    4
 40
25.4
 49
12.7
 74
    0
 49
-6.35
 74
    0
 49
0
 74
    0
 49
-6.35
 74
    0
  0
LTYPE
  5
3B
330
5
100
AcDbSymbolTableRecord
100
AcDbLinetypeTableRecord
  2
DASHDOTTINY
 70
    0
  3
Dash dot (.15x) _._._._._._._._._._._._._._._.
 72
   65
 73
    4
 40
3.81
 49
1.905
 74
    0
 49
-0.9525
 74
    0
 49
0
 74
    0
 49
-0.9525
 74
    0
  0
LTYPE
  5
3C
330
5
100
AcDbSymbolTableRecord
100
AcDbLinetypeTableRecord
  2
DASHDOT2
 70
    0
  3
Dash dot (.5x) _._._._._._._._._._._._._._._.
 72
   65
 73
    4
 40
12.7
 49
6.35
 74
    0
 49
-3.175
 74
    0
 49
0
 74
    0
 49
-3.175
 74
    0
  0
LTYPE
  5
3D
330
5
100
AcDbSymbolTableRecord
100
AcDbLinetypeTableRecord
  2
DASHDOTX2
 70
    0
  3
Dash dot (2x) ____  .  ____  .  ____  .  ___
 72
   65
 73
    4
 40
50.8
 49
25.4
 74
    0
 49
-12.7
 74
    0
 49
0
 74
    0
 49
-12.7
 74
    0
  0
LTYPE
  5
3E
330
5
100
AcDbSymbolTableRecord
100
AcDbLinetypeTableRecord
  2
DIVIDE
 70
    0
  3
Divide ____ . . ____ . . ____ . . ____ . . ____
 72
   65
 73
    6
 40
31.75
 49
12.7
 74
    0
 49
-6.35
 74
    0
 49
0
 74
    0
 49
-6.35
 74
    0
 49
0
 74
    0
 49
-6.35
 74
    0
  0
LTYPE
  5
3F
330
5
100
AcDbSymbolTableRecord
100
AcDbLinetypeTableRecord
  2
DIVIDETINY
 70
    0
  3
Divide (.15x) __..__..__..__..__..__..__..__.._
 72
   65
 73
    6
 40
4.7625
 49
1.905
 74
    0
 49
-0.9525
 74
    0
 49
0
 74
    0
 49
-0.9525
 74
    0
 49
0
 74
    0
 49
-0.9525
 74
    0
  0
LTYPE
  5
40
330
5
100
AcDbSymbolTableRecord
100
AcDbLinetypeTableRecord
  2
DIVIDE2
 70
    0
  3
Divide (.5x) __..__..__..__..__..__..__..__.._
 72
   65
 73
    6
 40
15.875
 49
6.35
 74
    0
 49
-3.175
 74
    0
 49
0
 74
    0
 49
-3.175
 74
    0
 49
0
 74
    0
 49
-3.175
 74
    0
  0
LTYPE
  5
41
330
5
100
AcDbSymbolTableRecord
100
AcDbLinetypeTableRecord
  2
DIVIDEX2
 70
    0
  3
Divide (2x) ________  .  .  ________  .  .  _
 72
   65
 73
    6
 40
63.5
 49
25.4
 74
    0
 49
-12.7
 74
    0
 49
0
 74
    0
 49
-12.7
 74
    0
 49
0
 74
    0
 49
-12.7
 74
    0
  0
LTYPE
  5
42
330
5
100
AcDbSymbolTableRecord
100
AcDbLinetypeTableRecord
  2
BORDER
 70
    0
  3
Border __ __ . __ __ . __ __ . __ __ . __ __ .
 72
   65
 73
    6
 40
44.45
 49
12.7
 74
    0
 49
-6.35
 74
    0
 49
12.7
 74
    0
 49
-6.35
 74
    0
 49
0
 74
    0
 49
-6.35
 74
    0
  0
LTYPE
  5
43
330
5
100
AcDbSymbolTableRecord
100
AcDbLinetypeTableRecord
  2
BORDERTINY
 70
    0
  3
Border (.15x) __.__.__.__.__.__.__.__.__.__.__.
 72
   65
 73
    6
 40
6.6675
 49
1.905
 74
    0
 49
-0.9525
 74
    0
 49
1.905
 74
    0
 49
-0.9525
 74
    0
 49
0
 74
    0
 49
-0.9525
 74
    0
  0
LTYPE
  5
44
330
5
100
AcDbSymbolTableRecord
100
AcDbLinetypeTableRecord
  2
BORDER2
 70
    0
  3
Border (.5x) __.__.__.__.__.__.__.__.__.__.__.
 72
   65
 73
    6
 40
22.225
 49
6.35
 74
    0
 49
-3.175
 74
    0
 49
6.35
 74
    0
 49
-3.175
 74
    0
 49
0
 74
    0
 49
-3.175
 74
    0
  0
LTYPE
  5
45
330
5
100
AcDbSymbolTableRecord
100
AcDbLinetypeTableRecord
  2
BORDERX2
 70
    0
  3
Border (2x) ____  ____  .  ____  ____  .  ___
 72
   65
 73
    6
 40
88.89999999999999
 49
25.4
 74
    0
 49
-12.7
 74
    0
 49
25.4
 74
    0
 49
-12.7
 74
    0
 49
0
 74
    0
 49
-12.7
 74
    0
  0
LTYPE
  5
46
330
5
100
AcDbSymbolTableRecord
100
AcDbLinetypeTableRecord
  2
CENTER
 70
    0
  3
Center ____ _ ____ _ ____ _ ____ _ ____ _ ____
 72
   65
 73
    4
 40
50.8
 49
31.75
 74
    0
 49
-6.35
 74
    0
 49
6.35
 74
    0
 49
-6.35
 74
    0
  0
LTYPE
  5
47
330
5
100
AcDbSymbolTableRecord
100
AcDbLinetypeTableRecord
  2
CENTERTINY
 70
    0
  3
Center (.15x) ___ _ ___ _ ___ _ ___ _ ___ _ ___
 72
   65
 73
    4
 40
7.619999999999999
 49
4.7625
 74
    0
 49
-0.9525
 74
    0
 49
0.9525
 74
    0
 49
-0.9525
 74
    0
  0
LTYPE
  5
48
330
5
100
AcDbSymbolTableRecord
100
AcDbLinetypeTableRecord
  2
CENTER2
 70
    0
  3
Center (.5x) ___ _ ___ _ ___ _ ___ _ ___ _ ___
 72
   65
 73
    4
 40
28.575
 49
19.05
 74
    0
 49
-3.175
 74
    0
 49
3.175
 74
    0
 49
-3.175
 74
    0
  0
LTYPE
  5
49
330
5
100
AcDbSymbolTableRecord
100
AcDbLinetypeTableRecord
  2
CENTERX2
 70
    0
  3
Center (2x) ________  __  ________  __  _____
 72
   65
 73
    4
 40
101.6
 49
63.5
 74
    0
 49
-12.7
 74
    0
 49
12.7
 74
    0
 49
-12.7
 74
    0
  0
ENDTAB
  0
TABLE
  2
LAYER
  5
2
330
0
100
AcDbSymbolTable
 70
    1
  0
LAYER
  5
10
330
2
100
AcDbSymbolTableRecord
100
AcDbLayerTableRecord
  2
0
 70
    0
 62
    7
  6
CONTINUOUS
370
    0
390
F
  0
LAYER
  5
4A
330
2
100
AcDbSymbolTableRecord
100
AcDbLayerTableRecord
  2
Centre
 70
    0
 62
    1
  6
DASHDOTTINY
370
    0
390
F
  0
LAYER
  5
4B
330
2
100
AcDbSymbolTableRecord
100
AcDbLayerTableRecord
  2
Hidden
 70
    0
 62
    5
  6
DASHEDTINY
370
    0
390
F
  0
ENDTAB
  0
TABLE
  2
STYLE
  5
3
330
0
100
AcDbSymbolTable
 70
    3
  0
STYLE
  5
4C
330
2
100
AcDbSymbolTableRecord
100
AcDbTextStyleTableRecord
  2
iso3098
 70
    0
 40
0
 41
1
 50
0
 71
    0
 42
1
  3
iso3098
  4

  0
STYLE
  5
4D
330
2
100
AcDbSymbolTableRecord
100
AcDbTextStyleTableRecord
  2
Standard
 70
    0
 40
0
 41
1
 50
0
 71
    0
 42
1
  3
txt
  4

  0
ENDTAB
  0
TABLE
  2
VIEW
  5
6
330
0
100
AcDbSymbolTable
 70
    0
  0
ENDTAB
  0
TABLE
  2
UCS
  5
7
330
0
100
AcDbSymbolTable
 70
    0
  0
ENDTAB
  0
TABLE
  2
APPID
  5
9
330
0
100
AcDbSymbolTable
 70
    1
  0
APPID
  5
12
330
9
100
AcDbSymbolTableRecord
100
AcDbRegAppTableRecord
  2
ACAD
 70
    0
  0
APPID
  5
4E
330
9
100
AcDbSymbolTableRecord
100
AcDbRegAppTableRecord
  2
LibreCad
 70
    0
  0
ENDTAB
  0
TABLE
  2
DIMSTYLE
  5
A
330
0
100
AcDbSymbolTable
 70
    1
100
AcDbDimStyleTable
 71
    1
  0
DIMSTYLE
105
4F
330
A
100
AcDbSymbolTableRecord
100
AcDbDimStyleTableRecord
  2
Standard
 70
    0
 40
1
 41
2.5
 42
0.625
 43
0.38
 44
1.25
 45
0
 46
0
 47
0
 48
0
 49
1
140
2.5
141
0.09
142
0
143
25.4
144
1
145
0
146
1
147
0.625
148
0
 71
    0
 72
    0
 73
    0
 74
    1
 75
    0
 76
    0
 77
    0
 78
    8
 79
    0
170
    0
171
    2
172
    0
173
    0
174
    0
175
    0
176
    0
177
    0
178
    0
179
    0
271
    2
272
    4
273
    2
274
    2
275
    0
276
    0
277
    2
278
   44
279
    0
280
    0
281
    0
282
    0
283
    1
284
    0
285
    0
286
    0
288
    0
289
    3
340
STANDARD
341

371
   -2
372
   -2
  0
ENDTAB
  0
TABLE
  2
BLOCK_RECORD
  5
1
330
0
100
AcDbSymbolTable
 70
    2
  0
BLOCK_RECORD
  5
1F
330
1
100
AcDbSymbolTableRecord
100
AcDbBlockTableRecord
  2
*Model_Space
 70
    0
280
    1
281
    0
  0
BLOCK_RECORD
  5
1E
330
1
100
AcDbSymbolTableRecord
100
AcDbBlockTableRecord
  2
*Paper_Space
 70
    0
280
    1
281
    0
  0
BLOCK_RECORD
  5
50
330
1
100
AcDbSymbolTableRecord
100
AcDbBlockTableRecord
  2
*D1
 70
    0
280
    1
281
    0
  0
BLOCK_RECORD
  5
53
330
1
100
AcDbSymbolTableRecord
100
AcDbBlockTableRecord
  2
*D2
 70
    0
280
    1
281
    0
  0
ENDTAB
  0
ENDSEC
  0
SECTION
  2
BLOCKS
  0
BLOCK
  5
20
330
1F
100
AcDbEntity
  8
0
100
AcDbBlockBegin
  2
*Model_Space
 70
    0
 10
0
 20
0
 30
0
  3
*Model_Space
  1

  0
ENDBLK
  5
21
330
1F
100
AcDbEntity
  8
0
100
AcDbBlockEnd
  0
BLOCK
  5
1C
330
1B
100
AcDbEntity
  8
0
100
AcDbBlockBegin
  2
*Paper_Space
 70
    0
 10
0
 20
0
 30
0
  3
*Paper_Space
  1

  0
ENDBLK
  5
1D
330
1F
100
AcDbEntity
  8
0
100
AcDbBlockEnd
  0
BLOCK
  5
51
330
50
100
AcDbEntity
  8
0
100
AcDbBlockBegin
  2
*D1
 70
    1
 10
0
 20
0
  3
*D1
  1

  0
LINE
  5
56
100
AcDbEntity
  8
0
  6
ByBlock
 62
    0
370
   -2
100
AcDbLine
 10
0
 20
170
 11
155
 21
170
  0
SOLID
  5
57
100
AcDbEntity
  8
0
  6
ByBlock
 62
    0
370
   -2
100
AcDbTrace
 10
0
 20
170
 30
0
 11
2.5
 21
170.4162846577728
 31
0
 12
2.5
 22
169.5837153422272
 32
0
 13
2.5
 23
169.5837153422272
 33
0
  0
SOLID
  5
58
100
AcDbEntity
  8
0
  6
ByBlock
 62
    0
370
   -2
100
AcDbTrace
 10
155
 20
170
 30
0
 11
152.5
 21
169.5837153422272
 31
0
 12
152.5
 22
170.4162846577728
 32
0
 13
152.5
 23
170.4162846577728
 33
0
  0
MTEXT
  5
59
100
AcDbEntity
  8
0
  6
CONTINUOUS
 62
    0
370
   -2
100
AcDbMText
 10
77.5
 20
171.875
 30
0
 40
2.5
 41
4.444444444444756
 71
    5
 72
    1
  1
155
  7
STANDARD
210
0
220
0
230
1
 50
0
 73
    2
 44
1
  0
LINE
  5
5A
100
AcDbEntity
  8
0
  6
ByBlock
 62
    0
370
   -2
100
AcDbLine
 10
3.827021247335479e-17
 20
155.625
 11
7.654042494670958e-17
 21
171.25
  0
LINE
  5
5B
100
AcDbEntity
  8
0
  6
ByBlock
 62
    0
370
   -2
100
AcDbLine
 10
155
 20
155.625
 11
155
 21
171.25
  0
ENDBLK
  5
52
330
50
100
AcDbEntity
  8
0
100
AcDbBlockEnd
  0
BLOCK
  5
54
330
53
100
AcDbEntity
  8
0
100
AcDbBlockBegin
  2
*D2
 70
    1
 10
0
 20
0
  3
*D2
  1

  0
LINE
  5
5C
100
AcDbEntity
  8
0
  6
ByBlock
 62
    0
370
   -2
100
AcDbLine
 10
10
 20
200
 11
145
 21
200
  0
SOLID
  5
5D
100
AcDbEntity
  8
0
  6
ByBlock
 62
    0
370
   -2
100
AcDbTrace
 10
10
 20
200
 30
0
 11
12.5
 21
200.4162846577728
 31
0
 12
12.5
 22
199.5837153422272
 32
0
 13
12.5
 23
199.5837153422272
 33
0
  0
SOLID
  5
5E
100
AcDbEntity
  8
0
  6
ByBlock
 62
    0
370
   -2
100
AcDbTrace
 10
145
 20
200
 30
0
 11
142.5
 21
199.5837153422272
 31
0
 12
142.5
 22
200.4162846577728
 32
0
 13
142.5
 23
200.4162846577728
 33
0
  0
MTEXT
  5
5F
100
AcDbEntity
  8
0
  6
CONTINUOUS
 62
    0
370
   -2
100
AcDbMText
 10
77.5
 20
201.875
 30
0
 40
2.5
 41
4.444444444444756
 71
    5
 72
    1
  1
135
  7
STANDARD
210
0
220
0
230
1
 50
0
 73
    2
 44
1
  0
LINE
  5
60
100
AcDbEntity
  8
0
  6
ByBlock
 62
    0
370
   -2
100
AcDbLine
 10
10
 20
200.625
 11
10
 21
201.25
  0
LINE
  5
61
100
AcDbEntity
  8
0
  6
ByBlock
 62
    0
370
   -2
100
AcDbLine
 10
145
 20
200.625
 11
145
 21
201.25
  0
ENDBLK
  5
55
330
53
100
AcDbEntity
  8
0
100
AcDbBlockEnd
  0
ENDSEC
  0
SECTION
  2
ENTITIES
  0
LINE
  5
62
100
AcDbEntity
  8
0
  6
ByBlock
 62
  256
370
   -1
100
AcDbLine
 10
-16
 20
-16
 11
167
 21
-16
  0
LINE
  5
63
100
AcDbEntity
  8
Centre
  6
ByLayer
 62
  256
370
   -1
100
AcDbLine
 10
118
 20
97
 11
127
 21
97
  0
LINE
  5
64
100
AcDbEntity
  8
Centre
  6
ByBlock
 62
    1
370
   -1
100
AcDbLine
 10
122.5
 20
102
 11
122.5
 21
92
  0
CIRCLE
  5
65
100
AcDbEntity
  8
0
  6
ByBlock
 62
  256
370
   -1
100
AcDbCircle
 10
122.5
 20
97
 40
1.5
  0
LINE
  5
66
100
AcDbEntity
  8
Centre
  6
ByLayer
 62
  256
370
   -1
100
AcDbLine
 10
118
 20
64
 11
127
 21
64
  0
LINE
  5
67
100
AcDbEntity
  8
Centre
  6
ByBlock
 62
    1
370
   -1
100
AcDbLine
 10
122.5
 20
69
 11
122.5
 21
59
  0
CIRCLE
  5
68
100
AcDbEntity
  8
0
  6
ByBlock
 62
  256
370
   -1
100
AcDbCircle
 10
122.5
 20
64
 40
1.5
  0
LINE
  5
69
100
AcDbEntity
  8
Centre
  6
ByLayer
 62
  256
370
   -1
100
AcDbLine
 10
118
 20
31
 11
127
 21
31
  0
LINE
  5
6A
100
AcDbEntity
  8
Centre
  6
ByBlock
 62
    1
370
   -1
100
AcDbLine
 10
122.5
 20
36
 11
122.5
 21
26
  0
CIRCLE
  5
6B
100
AcDbEntity
  8
0
  6
ByBlock
 62
  256
370
   -1
100
AcDbCircle
 10
122.5
 20
31
 40
1.5
  0
CIRCLE
  5
6C
100
AcDbEntity
  8
0
  6
ByBlock
 62
  256
370
   -1
100
AcDbCircle
 10
122.5
 20
31
 40
3.175
  0
CIRCLE
  5
6D
100
AcDbEntity
  8
0
  6
ByBlock
 62
  256
370
   -1
100
AcDbCircle
 10
125
 20
29
 40
0
  0
CIRCLE
  5
6E
100
AcDbEntity
  8
0
  6
ByBlock
 62
  256
370
   -1
100
AcDbCircle
 10
122.5
 20
64
 40
3.175
  0
CIRCLE
  5
6F
100
AcDbEntity
  8
0
  6
ByBlock
 62
  256
370
   -1
100
AcDbCircle
 10
122.5
 20
97
 40
3.175
  0
LWPOLYLINE
  5
70
100
AcDbEntity
  8
0
  6
ByBlock
 62
  256
370
   -1
100
AcDbPolyline
 90
    4
 70
    1
 43
0
 10
10
 20
10
 10
145
 20
10
 10
145
 20
145
 10
10
 20
145
  0
LWPOLYLINE
  5
71
100
AcDbEntity
  8
0
  6
ByBlock
 62
  256
370
   -1
100
AcDbPolyline
 90
    4
 70
    1
 43
0
 10
11
 20
11
 10
144
 20
11
 10
144
 20
144
 10
11
 20
144
  0
LWPOLYLINE
  5
72
100
AcDbEntity
  8
0
  6
ByBlock
 62
  256
370
   -1
100
AcDbPolyline
 90
    4
 70
    1
 43
0
 10
0
 20
0
 10
155
 20
0
 10
155
 20
155
 10
0
 20
155
  0
LINE
  5
73
100
AcDbEntity
  8
0
  6
ByBlock
 62
  256
370
   -1
100
AcDbLine
 10
0
 20
0
 11
10
 21
10
  0
LINE
  5
74
100
AcDbEntity
  8
0
  6
ByBlock
 62
  256
370
   -1
100
AcDbLine
 10
145
 20
10
 11
155
 21
0
  0
LINE
  5
75
100
AcDbEntity
  8
0
  6
ByBlock
 62
  256
370
   -1
100
AcDbLine
 10
145
 20
145
 11
155
 21
155
  0
LINE
  5
76
100
AcDbEntity
  8
0
  6
ByBlock
 62
  256
370
   -1
100
AcDbLine
 10
0
 20
155
 11
10
 21
145
  0
LINE
  5
77
100
AcDbEntity
  8
Centre
  6
ByLayer
 62
  256
370
   -1
100
AcDbLine
 10
118
 20
126
 11
127
 21
126
  0
LINE
  5
78
100
AcDbEntity
  8
Centre
  6
ByBlock
 62
    1
370
   -1
100
AcDbLine
 10
122.5
 20
131
 11
122.5
 21
121
  0
CIRCLE
  5
79
100
AcDbEntity
  8
0
  6
ByBlock
 62
  256
370
   -1
100
AcDbCircle
 10
122.5
 20
126
 40
1.5
  0
LWPOLYLINE
  5
7A
100
AcDbEntity
  8
0
  6
ByLayer
 62
  256
370
   -1
100
AcDbPolyline
 90
    4
 70
    1
 43
0
 10
25
 20
20
 10
45
 20
20
 10
45
 20
110
 10
25
 20
110
  0
LWPOLYLINE
  5
7B
100
AcDbEntity
  8
0
  6
ByLayer
 62
  256
370
   -1
100
AcDbPolyline
 90
    4
 70
    1
 43
0
 10
55
 20
20
 10
75
 20
20
 10
75
 20
110
 10
55
 20
110
  0
LWPOLYLINE
  5
7C
100
AcDbEntity
  8
0
  6
ByLayer
 62
  256
370
   -1
100
AcDbPolyline
 90
    4
 70
    1
 43
0
 10
85
 20
20
 10
105
 20
20
 10
105
 20
110
 10
85
 20
110
  0
LINE
  5
7D
100
AcDbEntity
  8
Centre
  6
ByBlock
 62
  256
370
   -1
100
AcDbLine
 10
20
 20
25
 11
20
 21
15
  0
LINE
  5
7E
100
AcDbEntity
  8
Centre
  6
ByBlock
 62
  256
370
   -1
100
AcDbLine
 10
15
 20
20
 11
25
 21
20
  0
LINE
  5
7F
100
AcDbEntity
  8
Centre
  6
ByBlock
 62
  256
370
   -1
100
AcDbLine
 10
77.5
 20
82.5
 11
77.5
 21
72.5
  0
LINE
  5
80
100
AcDbEntity
  8
Centre
  6
ByBlock
 62
  256
370
   -1
100
AcDbLine
 10
72.5
 20
77.5
 11
82.5
 21
77.5
  0
CIRCLE
  5
81
100
AcDbEntity
  8
0
  6
ByBlock
 62
  256
370
   -1
100
AcDbCircle
 10
50
 20
50
 40
5
  0
CIRCLE
  5
82
100
AcDbEntity
  8
0
  6
ByBlock
 62
  256
370
   -1
100
AcDbCircle
 10
80
 20
50
 40
5
  0
CIRCLE
  5
83
100
AcDbEntity
  8
0
  6
ByBlock
 62
  256
370
   -1
100
AcDbCircle
 10
110
 20
50
 40
5
  0
LINE
  5
84
100
AcDbEntity
  8
Centre
  6
ByBlock
 62
  256
370
   -1
100
AcDbLine
 10
50
 20
60
 11
50
 21
40
  0
LINE
  5
85
100
AcDbEntity
  8
Centre
  6
ByBlock
 62
  256
370
   -1
100
AcDbLine
 10
40
 20
50
 11
60
 21
50
  0
LINE
  5
86
100
AcDbEntity
  8
Centre
  6
ByBlock
 62
  256
370
   -1
100
AcDbLine
 10
70
 20
50
 11
90
 21
50
  0
LINE
  5
87
100
AcDbEntity
  8
Centre
  6
ByBlock
 62
  256
370
   -1
100
AcDbLine
 10
80
 20
60
 11
80
 21
40
  0
LINE
  5
88
100
AcDbEntity
  8
Centre
  6
ByBlock
 62
  256
370
   -1
100
AcDbLine
 10
110
 20
60
 11
110
 21
40
  0
LINE
  5
89
100
AcDbEntity
  8
Centre
  6
ByBlock
 62
  256
370
   -1
100
AcDbLine
 10
100
 20
50
 11
120
 21
50
  0
CIRCLE
  5
8A
100
AcDbEntity
  8
0
  6
ByBlock
 62
  256
370
   -1
100
AcDbCircle
 10
20
 20
20
 40
1.5
  0
LINE
  5
8B
100
AcDbEntity
  8
Centre
  6
ByBlock
 62
  256
370
   -1
100
AcDbLine
 10
130
 20
20
 11
140
 21
19.99999999999999
  0
LINE
  5
8C
100
AcDbEntity
  8
Centre
  6
ByBlock
 62
  256
370
   -1
100
AcDbLine
 10
135
 20
15
 11
135
 21
25
  0
CIRCLE
  5
8D
100
AcDbEntity
  8
0
  6
ByBlock
 62
  256
370
   -1
100
AcDbCircle
 10
135
 20
20
 40
1.5
  0
LINE
  5
8E
100
AcDbEntity
  8
Centre
  6
ByBlock
 62
  256
370
   -1
100
AcDbLine
 10
135
 20
130
 11
135
 21
140
  0
LINE
  5
8F
100
AcDbEntity
  8
Centre
  6
ByBlock
 62
  256
370
   -1
100
AcDbLine
 10
140
 20
135
 11
130
 21
135
  0
CIRCLE
  5
90
100
AcDbEntity
  8
0
  6
ByBlock
 62
  256
370
   -1
100
AcDbCircle
 10
135
 20
135
 40
1.5
  0
LINE
  5
91
100
AcDbEntity
  8
Centre
  6
ByBlock
 62
  256
370
   -1
100
AcDbLine
 10
25.00000000000001
 20
135
 11
15.00000000000001
 21
135
  0
LINE
  5
92
100
AcDbEntity
  8
Centre
  6
ByBlock
 62
  256
370
   -1
100
AcDbLine
 10
20.00000000000001
 20
140
 11
20.00000000000001
 21
130
  0
CIRCLE
  5
93
100
AcDbEntity
  8
0
  6
ByBlock
 62
  256
370
   -1
100
AcDbCircle
 10
20.00000000000001
 20
135
 40
1.5
  0
CIRCLE
  5
94
100
AcDbEntity
  8
0
  6
ByBlock
 62
  256
370
   -1
100
AcDbCircle
 10
77.5018169663749
 20
77.5018169663749
 40
1.5
  0
LWPOLYLINE
  5
95
100
AcDbEntity
  8
0
  6
ByBlock
 62
  256
370
   -1
100
AcDbPolyline
 90
    4
 70
    1
 43
0
 10
0
 20
180
 10
155
 20
180
 10
155
 20
250
 10
0
 20
250
  0
CIRCLE
  5
96
100
AcDbEntity
  8
0
  6
ByBlock
 62
  256
370
   -1
100
AcDbCircle
 10
35
 20
222
 40
1.5
  0
CIRCLE
  5
97
100
AcDbEntity
  8
0
  6
ByBlock
 62
  256
370
   -1
100
AcDbCircle
 10
120
 20
222
 40
1.5
  0
LINE
  5
98
100
AcDbEntity
  8
Centre
  6
ByBlock
 62
  256
370
   -1
100
AcDbLine
 10
35
 20
226
 11
35
 21
218
  0
LINE
  5
99
100
AcDbEntity
  8
Centre
  6
ByBlock
 62
  256
370
   -1
100
AcDbLine
 10
31
 20
222
 11
39
 21
222
  0
LINE
  5
9A
100
AcDbEntity
  8
Centre
  6
ByBlock
 62
  256
370
   -1
100
AcDbLine
 10
116
 20
222
 11
124
 21
222
  0
LINE
  5
9B
100
AcDbEntity
  8
Centre
  6
ByBlock
 62
  256
370
   -1
100
AcDbLine
 10
120
 20
226
 11
120
 21
218
  0
TEXT
  5
9C
100
AcDbEntity
  8
Centre
  6
ByBlock
 62
  256
370
   -1
100
AcDbText
 10
4
 20
-11
 30
0
 40
5
  1
Motion Platform Control Panel Template
 50
0
 41
1
 51
0
  7
iso3098
 71
    0
210
0
220
0
230
1
100
AcDbText
  0
LINE
  5
9D
100
AcDbEntity
  8
Centre
  6
DASHDOTTINY
 62
  256
370
   -1
100
AcDbLine
 10
-10
 20
120
 11
20
 21
120
  0
LINE
  5
9E
100
AcDbEntity
  8
Centre
  6
DASHDOTTINY
 62
  256
370
   -1
100
AcDbLine
 10
-10
 20
35
 11
20
 21
35
  0
DIMENSION
  5
9F
100
AcDbEntity
  8
0
  6
ByBlock
 62
  256
370
   -1
100
AcDbDimension
  2
*D1
 10
155
 20
170
 30
0
 11
77.5
 21
171.875
 31
0
 70
   32
 71
    5
 72
    0
  3
Standard
 53
0
210
0
220
0
230
1
100
AcDbAlignedDimension
 13
0
 23
155
 33
0
 14
155
 24
155
 34
0
100
AcDbRotatedDimension
  0
LINE
  5
A0
100
AcDbEntity
  8
Hidden
  6
ByBlock
 62
  256
370
   -1
100
AcDbLine
 10
10
 20
250
 11
10
 21
180
  0
LINE
  5
A1
100
AcDbEntity
  8
Hidden
  6
ByBlock
 62
  256
370
   -1
100
AcDbLine
 10
145
 20
250
 11
145
 21
180
  0
LINE
  5
A2
100
AcDbEntity
  8
Hidden
  6
ByBlock
 62
  256
370
   -1
100
AcDbLine
 10
10
 20
230
 11
145
 21
230
  0
LINE
  5
A3
100
AcDbEntity
  8
Hidden
  6
ByBlock
 62
  256
370
   -1
100
AcDbLine
 10
145
 20
214
 11
10
 21
214
  0
DIMENSION
  5
A4
100
AcDbEntity
  8
0
  6
ByBlock
 62
  256
370
   -1
100
AcDbDimension
  2
*D2
 10
145
 20
200
 30
0
 11
77.5
 21
201.875
 31
0
 70
   32
 71
    5
 72
    0
  3
Standard
 53
0
210
0
220
0
230
1
100
AcDbAlignedDimension
 13
10
 23
200
 33
0
 14
145
 24
200
 34
0
100
AcDbRotatedDimension
  0
LINE
  5
A5
100
AcDbEntity
  8
Centre
  6
ByLayer
 62
  256
370
   -1
100
AcDbLine
 10
5
 20
30
 11
5
 21
40
  0
CIRCLE
  5
A6
100
AcDbEntity
  8
0
  6
ByLayer
 62
  256
370
   -1
100
AcDbCircle
 10
5
 20
35
 40
1.5
  0
LINE
  5
A7
100
AcDbEntity
  8
Centre
  6
DASHDOTTINY
 62
  256
370
   -1
100
AcDbLine
 10
34.99999999999999
 20
-10
 11
35
 21
20
  0
LINE
  5
A8
100
AcDbEntity
  8
Centre
  6
DASHDOTTINY
 62
  256
370
   -1
100
AcDbLine
 10
120
 20
-10
 11
120
 21
20
  0
LINE
  5
A9
100
AcDbEntity
  8
Centre
  6
DASHDOTTINY
 62
  256
370
   -1
100
AcDbLine
 10
165
 20
34.99999999999999
 11
135
 21
34.99999999999999
  0
LINE
  5
AA
100
AcDbEntity
  8
Centre
  6
DASHDOTTINY
 62
  256
370
   -1
100
AcDbLine
 10
165
 20
120
 11
135
 21
120
  0
LINE
  5
AB
100
AcDbEntity
  8
Centre
  6
DASHDOTTINY
 62
  256
370
   -1
100
AcDbLine
 10
120
 20
165
 11
120
 21
135
  0
LINE
  5
AC
100
AcDbEntity
  8
Centre
  6
DASHDOTTINY
 62
  256
370
   -1
100
AcDbLine
 10
35.00000000000001
 20
165
 11
35.00000000000001
 21
135
  0
LWPOLYLINE
  5
AD
100
AcDbEntity
  8
0
  6
ByLayer
 62
  256
370
   -1
100
AcDbPolyline
 90
    4
 70
    1
 43
0
 10
29.5
 20
30
 10
33.5
 20
30
 10
33.5
 20
100
 10
29.5
 20
100
  0
CIRCLE
  5
AE
100
AcDbEntity
  8
0
  6
ByLayer
 62
  256
370
   -1
100
AcDbCircle
 10
27.5
 20
22.75
 40
1.5
  0
CIRCLE
  5
AF
100
AcDbEntity
  8
0
  6
ByLayer
 62
  256
370
   -1
100
AcDbCircle
 10
42.5
 20
107.25
 40
1.5
  0
CIRCLE
  5
B0
100
AcDbEntity
  8
0
  6
ByLayer
 62
  256
370
   -1
100
AcDbCircle
 10
27.5
 20
107.25
 40
1.5
  0
CIRCLE
  5
B1
100
AcDbEntity
  8
0
  6
ByLayer
 62
  256
370
   -1
100
AcDbCircle
 10
42.5
 20
22.75
 40
1.5
  0
LINE
  5
B2
100
AcDbEntity
  8
Centre
  6
ByLayer
 62
  256
370
   -1
100
AcDbLine
 10
27.5
 20
24.5
 11
27.5
 21
21
  0
LINE
  5
B3
100
AcDbEntity
  8
Centre
  6
ByLayer
 62
  256
370
   -1
100
AcDbLine
 10
25.7
 20
22.8
 11
29.3
 21
22.8
  0
LINE
  5
B4
100
AcDbEntity
  8
Centre
  6
ByLayer
 62
  256
370
   -1
100
AcDbLine
 10
40.7
 20
22.7
 11
44.3
 21
22.7
  0
LINE
  5
B5
100
AcDbEntity
  8
Centre
  6
ByLayer
 62
  256
370
   -1
100
AcDbLine
 10
42.5
 20
24.5
 11
42.5
 21
21
  0
LINE
  5
B6
100
AcDbEntity
  8
Centre
  6
ByLayer
 62
  256
370
   -1
100
AcDbLine
 10
40.7
 20
107.3
 11
44.3
 21
107.3
  0
LINE
  5
B7
100
AcDbEntity
  8
Centre
  6
ByLayer
 62
  256
370
   -1
100
AcDbLine
 10
42.5
 20
109.1
 11
42.5
 21
105.5
  0
LINE
  5
B8
100
AcDbEntity
  8
Centre
  6
ByLayer
 62
  256
370
   -1
100
AcDbLine
 10
27.5
 20
109.1
 11
27.5
 21
105.4
  0
LINE
  5
B9
100
AcDbEntity
  8
Centre
  6
ByLayer
 62
  256
370
   -1
100
AcDbLine
 10
25.7
 20
107.2
 11
29.3
 21
107.2
  0
LWPOLYLINE
  5
BA
100
AcDbEntity
  8
0
  6
ByLayer
 62
  256
370
   -1
100
AcDbPolyline
 90
    4
 70
    1
 43
0
 10
59.5
 20
30
 10
63.5
 20
30
 10
63.5
 20
100
 10
59.5
 20
100
  0
CIRCLE
  5
BB
100
AcDbEntity
  8
0
  6
ByLayer
 62
  256
370
   -1
100
AcDbCircle
 10
57.5
 20
22.75
 40
1.5
  0
CIRCLE
  5
BC
100
AcDbEntity
  8
0
  6
ByLayer
 62
  256
370
   -1
100
AcDbCircle
 10
72.5
 20
107.25
 40
1.5
  0
CIRCLE
  5
BD
100
AcDbEntity
  8
0
  6
ByLayer
 62
  256
370
   -1
100
AcDbCircle
 10
57.5
 20
107.25
 40
1.5
  0
CIRCLE
  5
BE
100
AcDbEntity
  8
0
  6
ByLayer
 62
  256
370
   -1
100
AcDbCircle
 10
72.5
 20
22.75
 40
1.5
  0
LINE
  5
BF
100
AcDbEntity
  8
Centre
  6
ByLayer
 62
  256
370
   -1
100
AcDbLine
 10
57.5
 20
24.5
 11
57.5
 21
21
  0
LINE
  5
C0
100
AcDbEntity
  8
Centre
  6
ByLayer
 62
  256
370
   -1
100
AcDbLine
 10
55.7
 20
22.8
 11
59.3
 21
22.8
  0
LINE
  5
C1
100
AcDbEntity
  8
Centre
  6
ByLayer
 62
  256
370
   -1
100
AcDbLine
 10
70.7
 20
22.7
 11
74.3
 21
22.7
  0
LINE
  5
C2
100
AcDbEntity
  8
Centre
  6
ByLayer
 62
  256
370
   -1
100
AcDbLine
 10
72.5
 20
24.5
 11
72.5
 21
21
  0
LINE
  5
C3
100
AcDbEntity
  8
Centre
  6
ByLayer
 62
  256
370
   -1
100
AcDbLine
 10
70.69999999999999
 20
107.3
 11
74.3
 21
107.3
  0
LINE
  5
C4
100
AcDbEntity
  8
Centre
  6
ByLayer
 62
  256
370
   -1
100
AcDbLine
 10
72.5
 20
109.1
 11
72.5
 21
105.5
  0
LINE
  5
C5
100
AcDbEntity
  8
Centre
  6
ByLayer
 62
  256
370
   -1
100
AcDbLine
 10
57.5
 20
109.1
 11
57.5
 21
105.4
  0
LINE
  5
C6
100
AcDbEntity
  8
Centre
  6
ByLayer
 62
  256
370
   -1
100
AcDbLine
 10
55.7
 20
107.2
 11
59.3
 21
107.2
  0
LWPOLYLINE
  5
C7
100
AcDbEntity
  8
0
  6
ByLayer
 62
  256
370
   -1
100
AcDbPolyline
 90
    4
 70
    1
 43
0
 10
89.5
 20
30
 10
93.5
 20
30
 10
93.5
 20
100
 10
89.5
 20
100
  0
CIRCLE
  5
C8
100
AcDbEntity
  8
0
  6
ByLayer
 62
  256
370
   -1
100
AcDbCircle
 10
87.5
 20
22.75
 40
1.5
  0
CIRCLE
  5
C9
100
AcDbEntity
  8
0
  6
ByLayer
 62
  256
370
   -1
100
AcDbCircle
 10
102.5
 20
107.25
 40
1.5
  0
CIRCLE
  5
CA
100
AcDbEntity
  8
0
  6
ByLayer
 62
  256
370
   -1
100
AcDbCircle
 10
87.5
 20
107.25
 40
1.5
  0
CIRCLE
  5
CB
100
AcDbEntity
  8
0
  6
ByLayer
 62
  256
370
   -1
100
AcDbCircle
 10
102.5
 20
22.75
 40
1.5
  0
LINE
  5
CC
100
AcDbEntity
  8
Centre
  6
ByLayer
 62
  256
370
   -1
100
AcDbLine
 10
87.5
 20
24.5
 11
87.5
 21
21
  0
LINE
  5
CD
100
AcDbEntity
  8
Centre
  6
ByLayer
 62
  256
370
   -1
100
AcDbLine
 10
85.7
 20
22.8
 11
89.3
 21
22.8
  0
LINE
  5
CE
100
AcDbEntity
  8
Centre
  6
ByLayer
 62
  256
370
   -1
100
AcDbLine
 10
100.7
 20
22.7
 11
104.3
 21
22.7
  0
LINE
  5
CF
100
AcDbEntity
  8
Centre
  6
ByLayer
 62
  256
370
   -1
100
AcDbLine
 10
102.5
 20
24.5
 11
102.5
 21
21
  0
LINE
  5
D0
100
AcDbEntity
  8
Centre
  6
ByLayer
 62
  256
370
   -1
100
AcDbLine
 10
100.7
 20
107.3
 11
104.3
 21
107.3
  0
LINE
  5
D1
100
AcDbEntity
  8
Centre
  6
ByLayer
 62
  256
370
   -1
100
AcDbLine
 10
102.5
 20
109.1
 11
102.5
 21
105.5
  0
LINE
  5
D2
100
AcDbEntity
  8
Centre
  6
ByLayer
 62
  256
370
   -1
100
AcDbLine
 10
87.5
 20
109.1
 11
87.5
 21
105.4
  0
LINE
  5
D3
100
AcDbEntity
  8
Centre
  6
ByLayer
 62
  256
370
   -1
100
AcDbLine
 10
85.7
 20
107.2
 11
89.3
 21
107.2
  0
CIRCLE
  5
D4
100
AcDbEntity
  8
0
  6
ByLayer
 62
  256
370
   -1
100
AcDbCircle
 10
31.5
 20
126
 40
3.17
  0
LINE
  5
D5
100
AcDbEntity
  8
Centre
  6
ByLayer
 62
  256
370
   -1
100
AcDbLine
 10
27
 20
126
 11
36
 21
126
  0
CIRCLE
  5
D6
100
AcDbEntity
  8
0
  6
ByBlock
 62
  256
370
   -1
100
AcDbCircle
 10
31.5
 20
118
 40
1.5
  0
CIRCLE
  5
D7
100
AcDbEntity
  8
0
  6
ByBlock
 62
  256
370
   -1
100
AcDbCircle
 10
31.5
 20
134
 40
1.5
  0
LINE
  5
D8
100
AcDbEntity
  8
Centre
  6
ByBlock
 62
  256
370
   -1
100
AcDbLine
 10
31.5
 20
115
 11
31.5
 21
137
  0
CIRCLE
  5
D9
100
AcDbEntity
  8
0
  6
ByLayer
 62
  256
370
   -1
100
AcDbCircle
 10
61.5
 20
126
 40
3.17
  0
LINE
  5
DA
100
AcDbEntity
  8
Centre
  6
ByLayer
 62
  256
370
   -1
100
AcDbLine
 10
57
 20
126
 11
66
 21
126
  0
CIRCLE
  5
DB
100
AcDbEntity
  8
0
  6
ByBlock
 62
  256
370
   -1
100
AcDbCircle
 10
61.5
 20
118
 40
1.5
  0
CIRCLE
  5
DC
100
AcDbEntity
  8
0
  6
ByBlock
 62
  256
370
   -1
100
AcDbCircle
 10
61.5
 20
134
 40
1.5
  0
LINE
  5
DD
100
AcDbEntity
  8
Centre
  6
ByBlock
 62
  256
370
   -1
100
AcDbLine
 10
61.5
 20
115
 11
61.5
 21
137
  0
CIRCLE
  5
DE
100
AcDbEntity
  8
0
  6
ByLayer
 62
  256
370
   -1
100
AcDbCircle
 10
91.5
 20
126
 40
3.17
  0
LINE
  5
DF
100
AcDbEntity
  8
Centre
  6
ByLayer
 62
  256
370
   -1
100
AcDbLine
 10
87
 20
126
 11
96
 21
126
  0
CIRCLE
  5
E0
100
AcDbEntity
  8
0
  6
ByBlock
 62
  256
370
   -1
100
AcDbCircle
 10
91.5
 20
118
 40
1.5
  0
CIRCLE
  5
E1
100
AcDbEntity
  8
0
  6
ByBlock
 62
  256
370
   -1
100
AcDbCircle
 10
91.5
 20
134
 40
1.5
  0
LINE
  5
E2
100
AcDbEntity
  8
Centre
  6
ByBlock
 62
  256
370
   -1
100
AcDbLine
 10
91.5
 20
115
 11
91.5
 21
137
  0
CIRCLE
  5
E3
100
AcDbEntity
  8
0
  6
ByLayer
 62
  256
370
   -1
100
AcDbCircle
 10
35
 20
222
 40
5.5
  0
CIRCLE
  5
E4
100
AcDbEntity
  8
0
  6
ByLayer
 62
  256
370
   -1
100
AcDbCircle
 10
120
 20
222
 40
5.5
  0
CIRCLE
  5
E5
100
AcDbEntity
  8
0
  6
ByLayer
 62
  256
370
   -1
100
AcDbCircle
 10
31.5
 20
126
 40
8.5
  0
LINE
  5
E6
100
AcDbEntity
  8
0
  6
ByLayer
 62
  256
370
   -1
100
AcDbLine
 10
10
 20
118
 11
36.99999999999999
 21
145
  0
LINE
  5
E7
100
AcDbEntity
  8
0
  6
ByLayer
 62
  256
370
   -1
100
AcDbLine
 10
36.99999999999999
 20
10
 11
10
 21
36.99999999999999
  0
LINE
  5
E8
100
AcDbEntity
  8
0
  6
ByLayer
 62
  256
370
   -1
100
AcDbLine
 10
145
 20
36.99999999999999
 11
118
 21
10
  0
LINE
  5
E9
100
AcDbEntity
  8
0
  6
ByLayer
 62
  256
370
   -1
100
AcDbLine
 10
118
 20
145
 11
145
 21
118
  0
ENDSEC
  0
SECTION
  2
OBJECTS
  0
DICTIONARY
  5
C
330
0
100
AcDbDictionary
281
    1
  3
ACAD_GROUP
350
D
  0
DICTIONARY
  5
D
330
C
100
AcDbDictionary
281
    1
  0
ENDSEC
  0
EOF
